<svg width="20" height="20" viewBox="0 0 20 20" fill="none" xmlns="http://www.w3.org/2000/svg">
<path d="M10 10.6544C11.5138 10.6544 12.7408 9.4274 12.7408 7.9136C12.7408 6.39986 11.5138 5.17273 10 5.17273C8.4862 5.17273 7.25912 6.39986 7.25912 7.9136C7.25912 9.4274 8.4862 10.6544 10 10.6544Z" stroke="white" stroke-width="1.22727" stroke-miterlimit="10" stroke-linecap="round"/>
<path d="M9.99999 2.43176C4.51825 2.43176 3.60463 6.99988 4.51825 10.4625C5.32224 13.4957 7.7342 15.5696 9.32392 17.269C9.4095 17.3632 9.5139 17.4384 9.63033 17.49C9.74676 17.5415 9.87268 17.5681 9.99999 17.5681C10.1273 17.5681 10.2532 17.5415 10.3696 17.49C10.486 17.4384 10.5905 17.3632 10.676 17.269C12.2658 15.5696 14.6777 13.4957 15.4817 10.4625C16.3953 6.99988 15.4817 2.43176 9.99999 2.43176Z" stroke="white" stroke-width="1.22727" stroke-miterlimit="10" stroke-linecap="round"/>
</svg>
