<svg width="32" height="32" viewBox="0 0 32 32" fill="none" xmlns="http://www.w3.org/2000/svg">
<g id="Frame 7356">
<path id="Vector" d="M15.9996 23.7777C14.1977 23.324 12.7102 22.2902 11.5371 20.6763C10.3639 19.0624 9.77734 17.2703 9.77734 15.2999V10.5555L15.9996 8.22217L22.2218 10.5555V15.2999C22.2218 17.2703 21.6352 19.0624 20.4621 20.6763C19.2889 22.2902 17.8014 23.324 15.9996 23.7777ZM15.9996 22.1444C17.257 21.7555 18.307 20.9874 19.1496 19.8402C19.9922 18.693 20.4848 17.4129 20.6273 15.9999H15.9996V9.87495L11.3329 11.6249V15.6499C11.3329 15.7407 11.3459 15.8574 11.3718 15.9999H15.9996V22.1444Z" fill="white"/>
</g>
</svg>
