<svg width="24" height="24" viewBox="0 0 24 24" fill="none" xmlns="http://www.w3.org/2000/svg">
<g clip-path="url(#clip0_3821_38836)">
<path d="M12.7413 0.0117188C12.282 0.0117188 11.8782 0.391791 11.8465 0.866882C11.8307 1.11235 11.9099 1.34989 12.0682 1.53201C12.2266 1.71413 12.4483 1.82498 12.6938 1.84082C18.0069 2.19714 22.1639 6.65507 22.1639 11.984C22.1639 17.5901 17.6031 22.1589 11.997 22.1589C9.05142 22.1589 6.2563 20.884 4.32426 18.659C4.15006 18.4611 3.89668 18.3502 3.63538 18.3502C3.41367 18.3502 3.19988 18.4294 3.0336 18.5719C2.65353 18.9045 2.61394 19.4825 2.9465 19.8626C5.22694 22.4835 8.52882 23.988 12.0049 23.988C18.6245 23.988 24.0089 18.6036 24.0089 11.984C24.0089 5.36441 19.06 0.4393 12.7413 0.0117188Z" fill="white"/>
<path d="M6.00249 3.57505C6.17669 3.57505 6.34298 3.52754 6.50926 3.42461C7.32483 2.89409 8.21166 2.49026 9.13017 2.22896C9.60526 2.08643 9.89032 1.56383 9.74779 1.08874C9.62902 0.708671 9.25686 0.439453 8.86096 0.439453C8.77386 0.439453 8.69467 0.455289 8.60757 0.479044C7.50695 0.803689 6.46175 1.27878 5.49573 1.8964C5.23443 2.0706 5.08398 2.35565 5.08398 2.66446C5.08398 2.83866 5.13149 2.99703 5.22651 3.16331C5.40071 3.42461 5.67785 3.58297 5.99458 3.58297L6.00249 3.57505Z" fill="white"/>
<path d="M1.82899 11.9838C1.82899 11.4771 1.41725 11.0732 0.918403 11.0732C0.419558 11.0732 0.0078125 11.485 0.0078125 11.9838C0.0078125 13.1241 0.166176 14.2326 0.490821 15.3807C0.609594 15.7608 0.97383 16.0221 1.36182 16.0221C1.44892 16.0221 1.5281 16.0142 1.62312 15.9904C2.02695 15.8637 2.28825 15.5074 2.28033 15.1115C2.28033 15.0244 2.27241 14.9452 2.24866 14.8581C1.97152 13.9159 1.83691 12.9578 1.83691 11.9918L1.82899 11.9838Z" fill="white"/>
<path d="M4.03082 5.21348C3.99915 4.96802 3.87246 4.75423 3.6745 4.6117C3.51614 4.49293 3.3261 4.4375 3.12815 4.4375C2.83517 4.4375 2.55804 4.57211 2.39176 4.80174C1.69496 5.73608 1.1486 6.74961 0.760611 7.79481C0.72102 7.89774 0.697266 8.0086 0.697266 8.11153C0.697266 8.49953 0.934811 8.84001 1.30697 8.98253C1.41782 9.01421 1.52076 9.03004 1.61577 9.03004C1.99585 9.03004 2.33633 8.7925 2.47094 8.43618C2.81142 7.51767 3.27859 6.67043 3.85662 5.89444C4.00706 5.69649 4.06249 5.45895 4.03082 5.21348Z" fill="white"/>
<path d="M7.82422 11.9834C7.82422 12.4902 8.23596 12.894 8.73481 12.894H11.0865V15.2457C11.0865 15.7525 11.4983 16.1642 11.9971 16.1642C12.4959 16.1642 12.9156 15.7525 12.9156 15.2457V12.894H15.2673C15.7741 12.894 16.1858 12.4823 16.1858 11.9834C16.1858 11.4846 15.7741 11.0728 15.2673 11.0728H12.9156V8.72114C12.9156 8.21437 12.5039 7.81055 11.9971 7.81055C11.4903 7.81055 11.0865 8.22229 11.0865 8.72114V11.0728H8.73481C8.22805 11.0728 7.82422 11.4846 7.82422 11.9834Z" fill="white"/>
</g>
<defs>
<clipPath id="clip0_3821_38836">
<rect width="24" height="23.9762" fill="white" transform="translate(0 0.0117188)"/>
</clipPath>
</defs>
</svg>
