<svg width="16" height="17" viewBox="0 0 16 17" fill="none" xmlns="http://www.w3.org/2000/svg">
<path d="M8.105 2.8145C6.45937 2.8145 5.12 4.15353 5.12 5.79944C5.12 7.44566 6.45937 8.7847 8.105 8.7847C9.75063 8.7847 11.09 7.44566 11.09 5.79944C11.09 4.15353 9.75063 2.8145 8.105 2.8145ZM8.105 7.50472C7.165 7.50472 6.4 6.73974 6.4 5.79944C6.4 4.85946 7.165 4.09447 8.105 4.09447C9.045 4.09447 9.81 4.85946 9.81 5.79944C9.81 6.73974 9.045 7.50472 8.105 7.50472Z" fill="white"/>
<path d="M16 3.45573C16 2.04357 14.8513 0.894531 13.4388 0.894531H2.56125C1.14875 0.894531 0 2.04357 0 3.45573V11.0637C0 12.4759 1.14875 13.6249 2.56125 13.6249H5.54937C5.70812 13.6249 5.85 13.7196 5.91062 13.8659L6.4525 15.1761C6.7125 15.8046 7.32 16.2105 8 16.2105C8.68 16.2105 9.2875 15.8046 9.5475 15.1761L10.0894 13.8659C10.15 13.7196 10.2919 13.6249 10.4506 13.6249H13.4388C14.8513 13.6249 16 12.4759 16 11.0637V3.45573ZM8.90687 13.3765L8.365 14.6868C8.27375 14.9068 8.07938 14.9305 8 14.9305C7.92062 14.9305 7.72625 14.9068 7.635 14.6868L7.09312 13.3765C6.83375 12.7499 6.22812 12.3449 5.54937 12.3449H3.87457L4.08 11.934C4.38812 11.3175 5.00812 10.9343 5.6975 10.9343H10.3025C10.9919 10.9343 11.6119 11.3175 11.92 11.934L12.1254 12.3449H10.4506C9.77187 12.3449 9.16625 12.7499 8.90687 13.3765ZM14.72 11.0637C14.72 11.7318 14.2041 12.2758 13.5509 12.3336L13.065 11.3615C12.5381 10.3084 11.48 9.65437 10.3025 9.65437H5.6975C4.52 9.65437 3.46188 10.3084 2.935 11.3615L2.44906 12.3336C1.79594 12.2758 1.28 11.7318 1.28 11.0637V3.45573C1.28 2.74919 1.855 2.17451 2.56125 2.17451H13.4388C14.145 2.17451 14.72 2.74919 14.72 3.45573V11.0637Z" fill="white"/>
</svg>
