<svg width="11" height="12" viewBox="0 0 11 12" fill="none" xmlns="http://www.w3.org/2000/svg">
<path d="M2.36205 12C1.99377 12 1.63376 11.8908 1.32755 11.6862C1.02134 11.4816 0.782675 11.1908 0.641741 10.8505C0.500807 10.5103 0.463932 10.1359 0.53578 9.77466C0.607627 9.41345 0.78497 9.08167 1.04538 8.82125C1.3058 8.56084 1.63758 8.38349 1.99878 8.31164C2.35999 8.23979 2.73438 8.27667 3.07463 8.4176C3.41487 8.55854 3.70569 8.79721 3.91029 9.10342C4.11489 9.40964 4.2241 9.76965 4.2241 10.1379C4.22356 10.6316 4.02721 11.1049 3.67813 11.454C3.32904 11.8031 2.85573 11.9995 2.36205 12Z" fill="white"/>
<path d="M8.98268 10.3448C8.6144 10.3448 8.25439 10.2356 7.94818 10.031C7.64196 9.82641 7.4033 9.53559 7.26237 9.19534C7.12143 8.85509 7.08456 8.48069 7.1564 8.11949C7.22825 7.75828 7.4056 7.42649 7.66601 7.16608C7.92642 6.90566 8.25821 6.72832 8.61941 6.65647C8.98061 6.58462 9.35501 6.6215 9.69525 6.76243C10.0355 6.90337 10.3263 7.14203 10.5309 7.44825C10.7355 7.75446 10.8447 8.11448 10.8447 8.48276C10.8442 8.97645 10.6478 9.44976 10.2988 9.79885C9.94967 10.1479 9.47636 10.3443 8.98268 10.3448Z" fill="white"/>
<path d="M4.01721 10.3448C3.99003 10.3448 3.96312 10.3395 3.93801 10.3291C3.9129 10.3187 3.89009 10.3034 3.87088 10.2842C3.85166 10.265 3.83642 10.2422 3.82603 10.2171C3.81564 10.192 3.8103 10.1651 3.81031 10.1379V2.27583C3.81029 2.23173 3.82438 2.18878 3.85052 2.15326C3.87666 2.11774 3.91347 2.09152 3.95558 2.07843L10.5762 0.0094613C10.6072 -0.000244198 10.64 -0.00252261 10.672 0.00281056C10.704 0.00814373 10.7343 0.0209386 10.7605 0.0401596C10.7866 0.0593805 10.8079 0.0844875 10.8225 0.113448C10.8371 0.142409 10.8448 0.17441 10.8447 0.206861V8.48276C10.8447 8.53763 10.8229 8.59022 10.7841 8.62902C10.7453 8.66782 10.6927 8.68962 10.6378 8.68962C10.583 8.68962 10.5303 8.66782 10.4915 8.62902C10.4527 8.59022 10.4309 8.53759 10.4309 8.48272V0.488315L4.2241 2.42797L4.2241 10.1379C4.22412 10.1651 4.21878 10.192 4.20838 10.2171C4.19799 10.2422 4.18275 10.265 4.16354 10.2842C4.14432 10.3034 4.12151 10.3187 4.0964 10.3291C4.07129 10.3395 4.04438 10.3448 4.01721 10.3448Z" fill="white"/>
<path d="M4.01577 4.96392C3.92768 4.96392 3.90823 2.30828 4.01733 2.27433L10.4309 0.206897C10.5392 0.172138 10.8071 2.85152 10.698 2.88546L4.07739 4.95443C4.05746 4.96073 4.03668 4.96393 4.01577 4.96392Z" fill="white"/>
</svg>
