<svg width="14" height="15" viewBox="0 0 14 15" fill="none" xmlns="http://www.w3.org/2000/svg">
<path d="M12.3959 3.42024H11.3674C11.5214 2.86752 11.5284 2.22384 11.2555 1.67111C11.0526 1.25132 10.5069 0.544678 9.15655 0.544678C8.19103 0.544678 7.4634 0.929485 7.00863 1.66412C6.91067 1.51019 6.80573 1.37026 6.67979 1.25132C6.21802 0.789555 5.60233 0.551674 4.83971 0.551674C3.48239 0.551674 2.93666 1.26532 2.73376 1.68511C2.4679 2.23783 2.4679 2.87451 2.62182 3.42724H1.60733C0.725767 3.42724 0.00512695 4.14788 0.00512695 5.02944V6.47072C0.00512695 7.2963 0.634812 7.97496 1.44641 8.05892V12.5857C1.44641 13.1104 1.6493 13.6002 2.02012 13.971C2.38394 14.3348 2.89468 14.5447 3.40543 14.5447H10.5978C11.1156 14.5447 11.6193 14.3348 11.9901 13.971C12.3609 13.6002 12.5638 13.1104 12.5638 12.5857V8.05892C13.3684 7.97496 14.0051 7.3033 14.0051 6.47072V5.02944C14.0051 4.14788 13.2845 3.42724 12.4029 3.42724L12.3959 3.42024ZM9.15655 1.59415C9.75125 1.59415 10.1361 1.77606 10.311 2.13288C10.4999 2.51769 10.4159 3.05642 10.234 3.42024H7.54736C7.70128 1.59415 8.78574 1.59415 9.15655 1.59415ZM3.67829 2.13988C3.8532 1.77606 4.24501 1.59415 4.83971 1.59415C5.31547 1.59415 5.67229 1.72009 5.93116 1.98596C6.23201 2.28681 6.39993 2.77656 6.4489 3.42024H3.74826C3.56635 3.05642 3.48938 2.51769 3.67829 2.13988ZM1.0546 6.46372V5.02244C1.0546 4.71459 1.29948 4.46972 1.60733 4.46972H6.47689V7.01644H1.60733C1.29948 7.01644 1.0546 6.77156 1.0546 6.46372ZM2.76175 13.2223C2.58684 13.0474 2.49588 12.8235 2.49588 12.5787V8.07291H6.47689V13.4952H3.40543C3.16755 13.4952 2.92966 13.3973 2.76175 13.2293V13.2223ZM11.2415 13.2223C11.0736 13.3903 10.8357 13.4882 10.5978 13.4882H7.52637V8.06592H11.5074V12.5717C11.5074 12.8165 11.4094 13.0474 11.2415 13.2153V13.2223ZM12.9487 6.46372C12.9487 6.77156 12.6968 7.01644 12.3959 7.01644H7.52637V4.46972H12.3959C12.7038 4.46972 12.9487 4.71459 12.9487 5.02244V6.46372Z" fill="white"/>
</svg>
